:SAMPLES-PER-SECOND 30
:FRAME-RANGE 1-564
:FULLY-SPECIFIED
:DEGREES
230
root  23.1284 38.3149 24.9101 177.859 -35.4494 177.134
RightUpLeg  -19.2776 -6.46873 -10.2834
RightLeg  0.496952 6.72813 -1.28248
RightFoot  -9.91245 -0.154976 7.01269
RightToes  1.21801e-010 1.2921e-014 -6.02303e-014
Spine  -10.8053 0.705001 2.52761
Spine1  8.90386 1.80629 -5.76359
HEad  25.958 29.1965 4.1295
LeftShoulder1  1.06626 -1.1555 -17.5054
LeftArm  -7.63208 -6.33733 -51.2164
LeftForeArm  -6.91475 -47.7222 -12.8202
LeftHand  -0.0155192 4.39001 -1.09143
RightShoulder  1.99324 4.17861 20.321
RightArm  1.78936 29.4369 54.1524
RightForeArm  5.52956 27.6546 5.67364
RightHand  -0.0128673 -4.03688 0.841942
LeftUpLeg  7.55823 -7.81845 -8.80177
LeftLeg  20.9267 -4.47265 -0.873789
LeftFoot  -20.9922 0.743377 7.29808
LeftToes  1.70735e-010 3.74918e-011 3.68705e-011
231
root  22.8352 38.0419 23.3042 178.444 -37.3506 176.721
RightUpLeg  -19.6163 -6.35624 -10.2866
RightLeg  -0.547815 7.31733 -1.58311
RightFoot  -11.8849 -0.039928 8.61129
RightToes  1.21801e-010 1.2921e-014 -6.02303e-014
Spine  -11.7339 1.39057 2.81015
Spine1  9.10887 2.7347 -6.85348
HEad  25.8055 27.8915 3.98643
LeftShoulder1  1.13888 -1.56226 -16.9586
LeftArm  -7.95647 -7.47821 -51.1615
LeftForeArm  -7.37754 -47.3316 -12.6749
LeftHand  -0.0170706 4.48784 -1.0794
RightShoulder  1.97899 4.07377 20.5182
RightArm  3.41673 31.5078 54.6615
RightForeArm  4.19243 25.3971 5.22699
RightHand  -0.0123466 -4.01658 0.898154
LeftUpLeg  9.50846 -8.46483 -7.94279
LeftLeg  21.5723 -5.79501 -1.51714
LeftFoot  -22.7869 0.823322 6.83772
LeftToes  1.70735e-010 3.74918e-011 3.68705e-011
232
root  22.5419 37.8081 21.7 178.363 -39.4699 176.793
RightUpLeg  -20.2532 -6.18128 -10.3214
RightLeg  4.12393 6.62817 -0.434198
RightFoot  -10.0374 -0.131679 5.57286
RightToes  1.21801e-010 1.2921e-014 -6.02303e-014
Spine  -11.9794 1.81914 3.54611
Spine1  9.5073 3.20349 -7.36719
HEad  24.8559 27.2844 2.98013
LeftShoulder1  1.10822 -1.38806 -17.1914
LeftArm  -7.93155 -8.73587 -50.4453
LeftForeArm  -8.03205 -46.948 -12.5476
LeftHand  -0.0154101 4.21458 -0.817738
RightShoulder  2.04933 4.53091 19.8096
RightArm  4.39443 33.1725 55.7296
RightForeArm  3.24736 23.3981 4.86417
RightHand  -0.00806193 -3.73887 0.99276
LeftUpLeg  11.8016 -10.5152 -7.00415
LeftLeg  22.2389 -6.07555 -2.03485
LeftFoot  -23.9826 0.764263 5.59171
LeftToes  1.70735e-010 3.74918e-011 3.68705e-011
233
root  22.2693 37.8334 20.178 177.884 -43.0151 177.735
RightUpLeg  -19.7987 -3.35988 -10.0602
RightLeg  7.51355 2.01555 -1.7941
RightFoot  -3.40802 -0.589591 8.15334
RightToes  1.21801e-010 1.2921e-014 -6.02303e-014
Spine  -11.9311 1.96032 4.8267
Spine1  9.44538 3.17663 -6.93139
HEad  24.3969 26.0644 2.321
LeftShoulder1  1.13596 -1.55872 -16.9118
LeftArm  -7.65259 -9.4813 -50.1507
LeftForeArm  -9.18737 -46.5607 -12.4525
LeftHand  -0.0455772 3.84733 1.98084
RightShoulder  1.99411 4.32369 19.7906
RightArm  5.33621 34.2778 56.3593
RightForeArm  2.67837 21.938 5.07657
RightHand  -0.00740361 -3.72609 0.888729
LeftUpLeg  13.7335 -13.1922 -4.95698
LeftLeg  22.2435 -7.33256 -2.94738
LeftFoot  -23.2851 0.552069 3.9373
LeftToes  1.70735e-010 3.74918e-011 3.68705e-011
234
root  22.0188 37.8447 18.696 177.001 -46.6762 179.496
RightUpLeg  -20.2693 -1.49423 -9.6738
RightLeg  11.8564 -0.580643 -1.59661
RightFoot  3.18245 -1.67183 13.2377
RightToes  1.21801e-010 1.2921e-014 -6.02303e-014
Spine  -11.5127 2.08457 7.08736
Spine1  8.83403 3.24992 -7.25135
HEad  24.2845 24.7634 1.28255
LeftShoulder1  1.16287 -1.5882 -17.3566
LeftArm  -7.43973 -10.3266 -49.7544
LeftForeArm  -9.88421 -45.9618 -12.2393
LeftHand  -0.103811 3.29427 4.97117
RightShoulder  1.96487 4.15281 20.0099
RightArm  4.78238 35.11 56.4844
RightForeArm  3.45761 20.4239 5.62942
RightHand  -0.00436712 -3.39516 0.857966
LeftUpLeg  13.0432 -14.4169 -1.37627
LeftLeg  25.9638 -10.0041 -4.93032
LeftFoot  -21.7804 0.21802 0.955127
LeftToes  1.70735e-010 3.74918e-011 3.68705e-011
235
root  21.8268 37.7291 17.3266 175.778 -48.926 -178.208
RightUpLeg  -21.9659 -4.87938 -7.49128
RightLeg  17.873 0.752942 0.0610274
RightFoot  4.08643 -1.61103 12.0605
RightToes  1.21801e-010 1.2921e-014 -6.02303e-014
Spine  -10.061 2.54377 10.1521
Spine1  7.71274 3.85538 -8.36031
HEad  23.3586 23.8859 -0.220072
LeftShoulder1  1.17336 -1.62043 -17.419
LeftArm  -8.11384 -10.3665 -50.2101
LeftForeArm  -10.0041 -45.6817 -12.1285
LeftHand  -0.116833 3.55058 6.48295
RightShoulder  1.99249 4.38531 19.543
RightArm  2.24175 35.9697 56.9238
RightForeArm  6.18956 18.7151 6.29861
RightHand  -0.00620959 -3.24726 0.646724
LeftUpLeg  8.99831 -13.5658 3.06574
LeftLeg  34.9936 -11.2264 -7.98836
LeftFoot  -18.414 -0.107231 -3.52038
LeftToes  1.70735e-010 3.74918e-011 3.68705e-011
236
root  21.719 37.8592 16.1826 174.144 -51.7954 -175.722
RightUpLeg  -21.6554 -4.31245 -5.35013
RightLeg  20.3818 -2.20658 -1.12265
RightFoot  3.7051 -1.09129 8.44122
RightToes  1.21801e-010 1.2921e-014 -6.02303e-014
Spine  -8.40754 2.37707 12.0437
Spine1  7.10457 3.6139 -7.21225
HEad  21.2721 23.3669 -2.22714
LeftShoulder1  1.24725 -1.87614 -17.6919
LeftArm  -8.66018 -10.3356 -49.932
LeftForeArm  -10.2083 -45.5823 -12.0996
LeftHand  -0.0514301 4.4993 3.99977
RightShoulder  2.09797 5.01726 18.7983
RightArm  -0.363959 37.2816 57.131
RightForeArm  8.94483 17.1279 6.90268
RightHand  -0.024694 -3.45977 -0.364393
LeftUpLeg  3.26286 -15.0152 6.02771
LeftLeg  44.6476 -8.9918 -9.00224
LeftFoot  -11.3535 0.0671788 -7.2281
LeftToes  1.70735e-010 3.74918e-011 3.68705e-011
237
root  21.5849 37.9794 15.1212 172.36 -54.7233 -173.34
RightUpLeg  -20.7813 -5.02687 -3.32464
RightLeg  22.0363 -4.52011 -2.23276
RightFoot  2.23552 -0.802412 6.86094
RightToes  1.21801e-010 1.2921e-014 -6.02303e-014
Spine  -6.62277 2.21778 13.9574
Spine1  6.13072 3.61071 -6.84229
HEad  20.1545 22.318 -2.83616
LeftShoulder1  1.26731 -2.06725 -17.169
LeftArm  -8.15099 -10.8023 -50.3659
LeftForeArm  -11.3256 -44.6297 -11.7764
LeftHand  -0.0469009 4.46764 3.22041
RightShoulder  2.09013 5.01304 18.7099
RightArm  -2.25208 38.6611 57.1049
RightForeArm  11.3895 15.7016 7.42048
RightHand  -0.0189401 -3.26112 -0.0646009
LeftUpLeg  -2.6075 -17.2441 7.56787
LeftLeg  52.8803 -5.15397 -6.81064
LeftFoot  -5.67085 0.327533 -5.92433
LeftToes  1.70735e-010 3.74918e-011 3.68705e-011
238
root  21.3698 38.2467 14.0251 171.759 -57.0567 -172.772
RightUpLeg  -19.0163 -9.38835 -2.10641
RightLeg  22.2102 -2.97477 -1.55857
RightFoot  0.595622 -0.570779 5.49342
RightToes  1.21801e-010 1.2921e-014 -6.02303e-014
Spine  -5.57616 2.39448 14.7289
Spine1  5.62556 3.92385 -7.38961
HEad  19.5716 21.2897 -3.12849
LeftShoulder1  1.31208 -2.26203 -17.1469
LeftArm  -7.24983 -11.775 -50.4455
LeftForeArm  -12.2472 -43.3421 -11.3235
LeftHand  -0.0193716 4.59042 -0.949487
RightShoulder  2.1218 5.2781 18.273
RightArm  -4.37438 39.8458 56.8621
RightForeArm  14.0336 14.4376 7.72272
RightHand  0.00306775 -2.89219 0.901725
LeftUpLeg  -6.65048 -18.1508 7.4878
LeftLeg  57.3494 -1.79223 -2.48961
LeftFoot  -7.2382 0.199003 -4.34267
LeftToes  1.70735e-010 3.74918e-011 3.68705e-011
239
root  21.1263 38.5246 12.9909 172.271 -58.9488 -173.253
RightUpLeg  -17.5887 -12.4257 -1.64813
RightLeg  22.1979 -2.02236 -1.12553
RightFoot  -0.662283 -0.34442 3.63455
RightToes  1.21801e-010 1.2921e-014 -6.02303e-014
Spine  -5.24833 2.86801 15.1434
Spine1  5.75184 4.57809 -8.14161
HEad  19.314 20.2856 -3.00937
LeftShoulder1  1.34012 -2.44107 -16.88
LeftArm  -6.386 -12.7807 -50.6614
LeftForeArm  -13.5901 -42.1748 -10.9602
LeftHand  -0.0202446 4.55442 -0.730271
RightShoulder  2.13613 5.45536 17.9102
RightArm  -5.77633 40.9955 56.679
RightForeArm  15.0847 13.4043 7.97067
RightHand  0.00296708 -3.02588 0.986961
LeftUpLeg  -9.93288 -17.8679 6.6871
LeftLeg  58.3661 0.130445 0.776143
LeftFoot  -9.33341 0.124456 -3.90799
LeftToes  1.70735e-010 3.74918e-011 3.68705e-011
240
root  20.9002 38.8569 12.0551 172.849 -60.845 -173.609
RightUpLeg  -15.8903 -12.2377 -1.38466
RightLeg  21.2616 -4.2831 -1.76818
RightFoot  -1.20276 -0.27251 2.97796
RightToes  1.21801e-010 1.2921e-014 -6.02303e-014
Spine  -4.73618 3.15059 15.6713
Spine1  5.41663 4.98472 -8.75664
HEad  19.0899 19.5474 -3.0262
LeftShoulder1  1.33804 -2.45418 -16.783
LeftArm  -5.75183 -13.5364 -50.4795
LeftForeArm  -14.6376 -41.2582 -10.6848
LeftHand  -0.0183426 4.42249 -0.90228
RightShoulder  2.16633 5.69265 17.5795
RightArm  -6.83852 42.214 56.7823
RightForeArm  16.8902 12.2632 8.2183
RightHand  0.0196393 -2.7602 1.57306
LeftUpLeg  -12.6125 -16.3465 5.9953
LeftLeg  56.0602 1.06102 2.21169
LeftFoot  -10.7625 0.0815773 -3.37522
LeftToes  1.70735e-010 3.74918e-011 3.68705e-011
241
root  20.6894 39.1008 11.1714 174.42 -62.8997 -174.92
RightUpLeg  -14.3768 -13.8252 -1.62259
RightLeg  20.0143 -4.92783 -1.51159
RightFoot  -2.1396 -0.196406 2.25843
RightToes  1.21801e-010 1.2921e-014 -6.02303e-014
Spine  -4.09699 3.26335 15.7362
Spine1  4.73054 5.25783 -9.96643
HEad  18.5545 18.9364 -3.10808
LeftShoulder1  1.33141 -2.42865 -16.7696
LeftArm  -5.2425 -14.3825 -50.078
LeftForeArm  -15.7873 -40.4666 -10.4668
LeftHand  -0.0159453 4.31057 -0.298098
RightShoulder  2.19666 5.92655 17.2764
RightArm  -8.6238 43.3737 57.2439
RightForeArm  19.0901 11.0804 8.14928
RightHand  0.0348733 -2.51763 2.01042
LeftUpLeg  -14.8111 -13.9781 4.61837
LeftLeg  51.5769 1.84433 2.95614
LeftFoot  -12.8718 0.0304979 -3.49176
LeftToes  1.70735e-010 3.74918e-011 3.68705e-011
242
root  20.4987 39.321 10.3965 176.738 -64.9584 -176.632
RightUpLeg  -13.502 -13.3235 -1.96932
RightLeg  19.0343 -7.7036 -1.92512
RightFoot  -2.71868 -0.195486 2.34632
RightToes  1.21801e-010 1.2921e-014 -6.02303e-014
Spine  -4.06276 3.46154 15.8513
Spine1  4.71317 5.57358 -10.9536
HEad  17.3424 18.0471 -3.67169
LeftShoulder1  1.34045 -2.41737 -16.9912
LeftArm  -4.91661 -15.7174 -49.6452
LeftForeArm  -16.4619 -39.4356 -10.148
LeftHand  -0.0152725 4.31958 -0.509404
RightShoulder  2.25752 6.37763 16.759
RightArm  -9.90922 44.5353 57.4747
RightForeArm  20.0359 10.1474 8.01037
RightHand  0.00665105 -2.78367 0.999418
LeftUpLeg  -16.7652 -11.1268 2.87847
LeftLeg  45.256 2.01855 2.59006
LeftFoot  -13.39 0.0192468 -3.41117
LeftToes  1.70735e-010 3.74918e-011 3.68705e-011
